<svg xmlns="http://www.w3.org/2000/svg" xmlns:xlink="http://www.w3.org/1999/xlink" width="500" zoomAndPan="magnify" viewBox="0 0 375 374.999991" height="500" preserveAspectRatio="xMidYMid meet" version="1.0"><defs><g/><clipPath id="ba6eab070e"><path d="M 47 142.832031 L 113 142.832031 L 113 232.457031 L 47 232.457031 Z M 47 142.832031 " clip-rule="nonzero"/></clipPath><clipPath id="a4b2e0ca9a"><path d="M 7.355469 156 L 79 156 L 79 232.457031 L 7.355469 232.457031 Z M 7.355469 156 " clip-rule="nonzero"/></clipPath></defs><g clip-path="url(#ba6eab070e)"><path fill="#000000" d="M 95.425781 180.105469 C 95.765625 175.707031 96.6875 171.484375 96.296875 167.378906 C 94.945312 153 83.523438 142.960938 68.71875 142.878906 C 61.714844 142.84375 54.707031 142.832031 47.699219 142.832031 L 56.277344 161.644531 C 57.398438 161.707031 58.554688 161.675781 59.75 161.550781 C 62.785156 161.226562 65.882812 161.433594 68.945312 161.511719 C 74.304688 161.648438 77.910156 165.222656 77.832031 170.210938 C 77.757812 175.121094 74.230469 178.390625 68.890625 178.460938 C 67.292969 178.484375 65.695312 178.480469 63.949219 178.476562 L 72.433594 197.09375 C 76.503906 197 80.578125 197.035156 84.648438 197.085938 C 90.296875 197.15625 94.121094 200.585938 94.167969 205.53125 C 94.214844 210.695312 90.453125 214.023438 84.507812 214.046875 C 83.066406 214.054688 81.625 214.070312 80.183594 214.085938 L 88.566406 232.464844 C 100.746094 230.945312 109.40625 224.355469 112.191406 210.472656 C 115.078125 196.109375 107.890625 186.113281 95.425781 180.105469 Z M 95.425781 180.105469 " fill-opacity="1" fill-rule="nonzero"/></g><g clip-path="url(#a4b2e0ca9a)"><path fill="#000000" d="M 78.964844 232.308594 L 70 212.65625 C 69.855469 212.496094 69.730469 212.332031 69.644531 212.167969 C 60.894531 193.585938 52.277344 174.949219 43.648438 156.316406 L 7.386719 232.308594 Z M 49.828125 213.816406 L 35.847656 213.816406 C 38.183594 208.71875 40.328125 204.066406 42.761719 198.769531 C 45.238281 204.050781 47.4375 208.734375 49.828125 213.816406 Z M 49.828125 213.816406 " fill-opacity="1" fill-rule="nonzero"/></g><g fill="#000000" fill-opacity="1"><g transform="translate(146.84496, 208.974325)"><g><path d="M 23.0625 -35.109375 C 19.71875 -35.109375 17.128906 -33.847656 15.296875 -31.328125 C 13.460938 -28.816406 12.546875 -25.316406 12.546875 -20.828125 C 12.546875 -11.484375 16.050781 -6.8125 23.0625 -6.8125 C 26.007812 -6.8125 29.570312 -7.550781 33.75 -9.03125 L 33.75 -1.578125 C 30.3125 -0.140625 26.472656 0.578125 22.234375 0.578125 C 16.140625 0.578125 11.476562 -1.269531 8.25 -4.96875 C 5.019531 -8.664062 3.40625 -13.972656 3.40625 -20.890625 C 3.40625 -25.242188 4.195312 -29.054688 5.78125 -32.328125 C 7.375 -35.609375 9.65625 -38.125 12.625 -39.875 C 15.59375 -41.625 19.070312 -42.5 23.0625 -42.5 C 27.132812 -42.5 31.222656 -41.515625 35.328125 -39.546875 L 32.46875 -32.328125 C 30.90625 -33.066406 29.328125 -33.710938 27.734375 -34.265625 C 26.148438 -34.828125 24.59375 -35.109375 23.0625 -35.109375 Z M 23.0625 -35.109375 "/></g></g></g><g fill="#000000" fill-opacity="1"><g transform="translate(184.239671, 208.974325)"><g><path d="M 24.9375 0 L 23.234375 -4.359375 L 23.015625 -4.359375 C 21.535156 -2.503906 20.019531 -1.21875 18.46875 -0.5 C 16.914062 0.21875 14.882812 0.578125 12.375 0.578125 C 9.300781 0.578125 6.878906 -0.300781 5.109375 -2.0625 C 3.347656 -3.820312 2.46875 -6.328125 2.46875 -9.578125 C 2.46875 -12.972656 3.65625 -15.476562 6.03125 -17.09375 C 8.40625 -18.707031 11.992188 -19.597656 16.796875 -19.765625 L 22.359375 -19.9375 L 22.359375 -21.34375 C 22.359375 -24.59375 20.691406 -26.21875 17.359375 -26.21875 C 14.804688 -26.21875 11.800781 -25.445312 8.34375 -23.90625 L 5.4375 -29.796875 C 9.125 -31.734375 13.210938 -32.703125 17.703125 -32.703125 C 22.003906 -32.703125 25.300781 -31.765625 27.59375 -29.890625 C 29.882812 -28.015625 31.03125 -25.164062 31.03125 -21.34375 L 31.03125 0 Z M 22.359375 -14.84375 L 18.96875 -14.734375 C 16.425781 -14.648438 14.535156 -14.1875 13.296875 -13.34375 C 12.054688 -12.507812 11.4375 -11.234375 11.4375 -9.515625 C 11.4375 -7.046875 12.847656 -5.8125 15.671875 -5.8125 C 17.703125 -5.8125 19.320312 -6.394531 20.53125 -7.5625 C 21.75 -8.726562 22.359375 -10.273438 22.359375 -12.203125 Z M 22.359375 -14.84375 "/></g></g></g><g fill="#000000" fill-opacity="1"><g transform="translate(219.685846, 208.974325)"><g><path d="M 22.46875 -32.640625 C 23.65625 -32.640625 24.640625 -32.550781 25.421875 -32.375 L 24.765625 -24.1875 C 24.054688 -24.375 23.195312 -24.46875 22.1875 -24.46875 C 19.394531 -24.46875 17.21875 -23.75 15.65625 -22.3125 C 14.101562 -20.882812 13.328125 -18.882812 13.328125 -16.3125 L 13.328125 0 L 4.578125 0 L 4.578125 -32.03125 L 11.203125 -32.03125 L 12.5 -26.65625 L 12.921875 -26.65625 C 13.910156 -28.445312 15.25 -29.890625 16.9375 -30.984375 C 18.632812 -32.085938 20.476562 -32.640625 22.46875 -32.640625 Z M 22.46875 -32.640625 "/></g></g></g><g fill="#000000" fill-opacity="1"><g transform="translate(246.33495, 208.974325)"><g><path d="M 39.609375 0 L 30.75 0 L 30.75 -18.078125 L 14.15625 -18.078125 L 14.15625 0 L 5.265625 0 L 5.265625 -41.890625 L 14.15625 -41.890625 L 14.15625 -25.46875 L 30.75 -25.46875 L 30.75 -41.890625 L 39.609375 -41.890625 Z M 39.609375 0 "/></g></g></g><g fill="#000000" fill-opacity="1"><g transform="translate(291.237258, 208.974325)"><g><path d="M 27.28125 0 L 26.109375 -4.09375 L 25.640625 -4.09375 C 24.710938 -2.601562 23.382812 -1.453125 21.65625 -0.640625 C 19.9375 0.171875 17.984375 0.578125 15.796875 0.578125 C 12.023438 0.578125 9.179688 -0.425781 7.265625 -2.4375 C 5.359375 -4.457031 4.40625 -7.359375 4.40625 -11.140625 L 4.40625 -32.03125 L 13.15625 -32.03125 L 13.15625 -13.328125 C 13.15625 -11.015625 13.566406 -9.28125 14.390625 -8.125 C 15.210938 -6.96875 16.519531 -6.390625 18.3125 -6.390625 C 20.757812 -6.390625 22.523438 -7.207031 23.609375 -8.84375 C 24.703125 -10.476562 25.25 -13.1875 25.25 -16.96875 L 25.25 -32.03125 L 33.984375 -32.03125 L 33.984375 0 Z M 27.28125 0 "/></g></g></g><g fill="#000000" fill-opacity="1"><g transform="translate(329.806822, 208.974325)"><g><path d="M 22.40625 -32.640625 C 26.1875 -32.640625 29.144531 -31.160156 31.28125 -28.203125 C 33.425781 -25.253906 34.5 -21.210938 34.5 -16.078125 C 34.5 -10.785156 33.394531 -6.6875 31.1875 -3.78125 C 28.976562 -0.875 25.976562 0.578125 22.1875 0.578125 C 18.414062 0.578125 15.460938 -0.789062 13.328125 -3.53125 L 12.71875 -3.53125 L 11.265625 0 L 4.578125 0 L 4.578125 -44.59375 L 13.328125 -44.59375 L 13.328125 -34.21875 C 13.328125 -32.894531 13.210938 -30.78125 12.984375 -27.875 L 13.328125 -27.875 C 15.367188 -31.050781 18.394531 -32.640625 22.40625 -32.640625 Z M 19.59375 -25.640625 C 17.4375 -25.640625 15.859375 -24.972656 14.859375 -23.640625 C 13.867188 -22.316406 13.359375 -20.128906 13.328125 -17.078125 L 13.328125 -16.140625 C 13.328125 -12.691406 13.835938 -10.222656 14.859375 -8.734375 C 15.878906 -7.242188 17.5 -6.5 19.71875 -6.5 C 21.507812 -6.5 22.9375 -7.328125 24 -8.984375 C 25.0625 -10.640625 25.59375 -13.039062 25.59375 -16.1875 C 25.59375 -19.34375 25.054688 -21.707031 23.984375 -23.28125 C 22.910156 -24.851562 21.445312 -25.640625 19.59375 -25.640625 Z M 19.59375 -25.640625 "/></g></g></g></svg>